<svg width="199" height="76" viewBox="0 0 199 76" fill="none" xmlns="http://www.w3.org/2000/svg">
<path d="M107.427 20.9772C104.466 24.5866 107.008 31.5672 113.105 36.5687C119.201 41.5702 126.544 42.6988 129.505 39.0894C132.466 35.48 129.924 28.4995 123.827 23.4979C117.731 18.4964 110.388 17.3678 107.427 20.9772Z" fill="#F3BD13"/>
<path d="M91.4396 20.9772C94.4006 24.5866 91.8586 31.5672 85.7619 36.5687C79.6652 41.5702 72.3224 42.6988 69.3614 39.0894C66.4004 35.48 68.9424 28.4995 75.0391 23.4979C81.1358 18.4964 88.4786 17.3678 91.4396 20.9772Z" fill="#F3BD13"/>
<g filter="url(#filter0_d_21_36)">
<path d="M106.944 15.1608C108.656 12.0064 112.477 10.6586 115.789 12.0412L120.364 13.9511C123.676 15.3337 125.405 18.9981 124.366 22.4333L120.501 35.2096C119.301 39.177 114.934 41.2372 111.109 39.6404L104.033 36.6862C100.207 35.0895 98.6014 30.536 100.578 26.8929L106.944 15.1608Z" fill="#F3BD13"/>
</g>
<g filter="url(#filter1_d_21_36)">
<path d="M91.922 15.1608C90.2103 12.0064 86.3893 10.6586 83.0773 12.0412L78.5021 13.9511C75.1901 15.3337 73.4614 18.9981 74.5005 22.4333L78.3652 35.2096C79.5653 39.177 83.9321 41.2372 87.7572 39.6404L94.8339 36.6862C98.659 35.0895 100.265 30.536 98.2882 26.8929L91.922 15.1608Z" fill="#F3BD13"/>
</g>
<g filter="url(#filter2_d_21_36)">
<path d="M88.069 12.6747C87.6684 8.56211 90.9004 5 95.0325 5H103.865C107.997 5 111.229 8.56211 110.828 12.6747L108.693 34.597C108.344 38.1814 105.331 40.9152 101.73 40.9152H97.1678C93.5665 40.9152 90.5534 38.1814 90.2043 34.597L88.069 12.6747Z" fill="#F3BD13"/>
</g>
<path d="M86.3755 20.7222C86.3755 19.6974 87.2063 18.8666 88.2311 18.8666H92.3986C93.4234 18.8666 94.2542 19.6974 94.2542 20.7222V22.9681C94.2542 25.1438 92.4905 26.9075 90.3149 26.9075V26.9075C88.1392 26.9075 86.3755 25.1438 86.3755 22.9681V20.7222Z" fill="#FFEDB2"/>
<path d="M104.654 20.7222C104.654 19.6974 105.485 18.8666 106.51 18.8666H110.677C111.702 18.8666 112.533 19.6974 112.533 20.7222V22.9681C112.533 25.1438 110.769 26.9075 108.594 26.9075V26.9075C106.418 26.9075 104.654 25.1438 104.654 22.9681V20.7222Z" fill="#FFEDB2"/>
<path d="M182.156 65.912L184.484 65.144C184.788 65.896 185.1 66.712 185.42 67.592C185.74 68.472 186.02 69.32 186.26 70.136C186.516 70.952 186.7 71.68 186.812 72.32L184.292 73.256C184.196 72.632 184.036 71.904 183.812 71.072C183.588 70.224 183.332 69.352 183.044 68.456C182.756 67.544 182.46 66.696 182.156 65.912ZM178.292 53.888L180.86 54.44C180.62 55.672 180.316 56.896 179.948 58.112C179.596 59.312 179.188 60.432 178.724 61.472C178.26 62.512 177.756 63.432 177.212 64.232C177.084 64.056 176.892 63.848 176.636 63.608C176.396 63.368 176.14 63.128 175.868 62.888C175.612 62.632 175.388 62.432 175.196 62.288C175.692 61.616 176.132 60.832 176.516 59.936C176.916 59.04 177.26 58.072 177.548 57.032C177.852 55.992 178.1 54.944 178.292 53.888ZM177.044 73.928C176.996 73.736 176.916 73.48 176.804 73.16C176.708 72.84 176.604 72.504 176.492 72.152C176.38 71.8 176.268 71.504 176.156 71.264C176.412 71.184 176.636 70.992 176.828 70.688C177.02 70.384 177.228 69.96 177.452 69.416C177.564 69.16 177.716 68.752 177.908 68.192C178.116 67.616 178.34 66.936 178.58 66.152C178.82 65.368 179.044 64.528 179.252 63.632C179.476 62.736 179.668 61.84 179.828 60.944L182.612 61.64C182.324 62.904 181.98 64.184 181.58 65.48C181.18 66.76 180.756 67.984 180.308 69.152C179.876 70.32 179.436 71.376 178.988 72.32V72.368C178.988 72.368 178.892 72.424 178.7 72.536C178.508 72.632 178.276 72.768 178.004 72.944C177.748 73.104 177.524 73.272 177.332 73.448C177.14 73.624 177.044 73.784 177.044 73.928ZM177.02 73.928L176.852 71.72L178.004 70.88L185.372 69.536C185.404 69.888 185.468 70.288 185.564 70.736C185.66 71.168 185.748 71.52 185.828 71.792C184.068 72.144 182.644 72.44 181.556 72.68C180.468 72.904 179.628 73.096 179.036 73.256C178.444 73.4 178.004 73.52 177.716 73.616C177.428 73.728 177.196 73.832 177.02 73.928ZM181.676 54.68L184.004 53.768C184.436 54.648 184.868 55.592 185.3 56.6C185.732 57.592 186.108 58.568 186.428 59.528C186.764 60.472 187.004 61.32 187.148 62.072L184.58 63.176C184.452 62.44 184.228 61.584 183.908 60.608C183.604 59.632 183.26 58.632 182.876 57.608C182.492 56.568 182.092 55.592 181.676 54.68ZM186.116 54.368H197.876V56.936H186.116V54.368ZM189.692 63.944V65.24H194.324V63.944H189.692ZM189.692 67.28V68.576H194.324V67.28H189.692ZM189.692 60.656V61.928H194.324V60.656H189.692ZM187.124 58.496H196.988V70.736H187.124V58.496ZM190.892 56.072L193.868 56.48C193.5 57.168 193.108 57.848 192.692 58.52C192.276 59.176 191.9 59.744 191.564 60.224L189.308 59.768C189.516 59.416 189.716 59.024 189.908 58.592C190.1 58.144 190.284 57.704 190.46 57.272C190.636 56.84 190.78 56.44 190.892 56.072ZM189.476 70.688L191.732 72.272C191.124 72.928 190.364 73.56 189.452 74.168C188.54 74.792 187.628 75.288 186.716 75.656C186.556 75.368 186.34 75.024 186.068 74.624C185.812 74.224 185.556 73.88 185.3 73.592C185.812 73.368 186.332 73.096 186.86 72.776C187.388 72.456 187.884 72.112 188.348 71.744C188.812 71.36 189.188 71.008 189.476 70.688ZM192.548 72.392L193.964 70.52C194.444 70.792 194.956 71.112 195.5 71.48C196.044 71.832 196.572 72.192 197.084 72.56C197.596 72.912 198.012 73.232 198.332 73.52L196.844 75.632C196.54 75.328 196.14 74.976 195.644 74.576C195.164 74.192 194.652 73.808 194.108 73.424C193.564 73.04 193.044 72.696 192.548 72.392Z" fill="#B65A0F"/>
<path d="M167.012 55.64H170.036V72.128C170.036 72.992 169.924 73.656 169.7 74.12C169.476 74.6 169.068 74.96 168.476 75.2C167.9 75.44 167.164 75.584 166.268 75.632C165.372 75.696 164.308 75.728 163.076 75.728C163.012 75.44 162.916 75.104 162.788 74.72C162.66 74.352 162.508 73.984 162.332 73.616C162.172 73.248 162.012 72.936 161.852 72.68C162.444 72.696 163.036 72.712 163.628 72.728C164.236 72.744 164.78 72.752 165.26 72.752C165.74 72.752 166.076 72.752 166.268 72.752C166.54 72.752 166.732 72.704 166.844 72.608C166.956 72.512 167.012 72.336 167.012 72.08V55.64ZM153.308 60.44H156.092V71.624H153.308V60.44ZM154.484 60.44H163.532V69.776H154.484V67.016H160.7V63.176H154.484V60.44ZM151.076 54.824H172.82V57.752H151.076V54.824Z" fill="#B65A0F"/>
<path d="M134.3 66.08H146.972V68.672H134.3V66.08ZM132.908 72.488H148.196V75.104H132.908V72.488ZM133.268 55.832H148.028V60.344H145.412V58.208H135.764V60.416H133.268V55.832ZM139.1 67.328H141.932V73.736H139.1V67.328ZM125.54 66.2C126.5 65.96 127.652 65.648 128.996 65.264C130.356 64.864 131.724 64.456 133.1 64.04L133.532 66.584C132.268 67.016 130.98 67.44 129.668 67.856C128.372 68.272 127.18 68.656 126.092 69.008L125.54 66.2ZM125.876 57.8H132.98V60.464H125.876V57.8ZM128.372 53.24H131.012V72.728C131.012 73.384 130.94 73.904 130.796 74.288C130.668 74.688 130.42 75 130.052 75.224C129.7 75.448 129.252 75.6 128.708 75.68C128.18 75.76 127.516 75.792 126.716 75.776C126.684 75.424 126.596 74.984 126.452 74.456C126.308 73.944 126.148 73.496 125.972 73.112C126.42 73.128 126.828 73.144 127.196 73.16C127.58 73.16 127.844 73.152 127.988 73.136C128.132 73.136 128.228 73.112 128.276 73.064C128.34 73 128.372 72.888 128.372 72.728V53.24ZM138.236 53.792L140.924 53C141.212 53.544 141.5 54.136 141.788 54.776C142.076 55.416 142.3 55.968 142.46 56.432L139.7 57.368C139.556 56.888 139.34 56.312 139.052 55.64C138.78 54.968 138.508 54.352 138.236 53.792ZM137.492 57.824H140.108C140.06 58.832 139.964 59.728 139.82 60.512C139.676 61.28 139.412 61.968 139.028 62.576C138.66 63.168 138.124 63.68 137.42 64.112C136.732 64.544 135.828 64.896 134.708 65.168C134.612 64.864 134.428 64.504 134.156 64.088C133.884 63.672 133.62 63.352 133.364 63.128C134.276 62.92 134.996 62.672 135.524 62.384C136.068 62.096 136.476 61.744 136.748 61.328C137.036 60.896 137.228 60.392 137.324 59.816C137.42 59.24 137.476 58.576 137.492 57.824ZM141.284 57.584H143.852V61.496C143.852 61.8 143.884 62.016 143.948 62.144C144.012 62.272 144.148 62.336 144.356 62.336C144.436 62.336 144.564 62.336 144.74 62.336C144.916 62.336 145.108 62.336 145.316 62.336C145.524 62.336 145.716 62.336 145.892 62.336C146.068 62.336 146.204 62.336 146.3 62.336C146.524 62.336 146.788 62.328 147.092 62.312C147.396 62.28 147.636 62.24 147.812 62.192C147.844 62.528 147.876 62.912 147.908 63.344C147.94 63.776 147.988 64.144 148.052 64.448C147.86 64.528 147.604 64.584 147.284 64.616C146.98 64.632 146.668 64.64 146.348 64.64C146.252 64.64 146.108 64.64 145.916 64.64C145.724 64.64 145.516 64.64 145.292 64.64C145.068 64.64 144.86 64.64 144.668 64.64C144.476 64.64 144.332 64.64 144.236 64.64C143.436 64.64 142.82 64.536 142.388 64.328C141.972 64.104 141.684 63.76 141.524 63.296C141.364 62.832 141.284 62.224 141.284 61.472V57.584Z" fill="#B65A0F"/>
<path d="M101.156 63.752H122.852V66.68H101.156V63.752ZM104.9 53.504L107.948 54.152C107.644 55.304 107.268 56.432 106.82 57.536C106.388 58.624 105.916 59.648 105.404 60.608C104.892 61.552 104.348 62.384 103.772 63.104C103.564 62.944 103.284 62.768 102.932 62.576C102.596 62.368 102.252 62.176 101.9 62C101.548 61.808 101.244 61.664 100.988 61.568C101.58 60.944 102.124 60.2 102.62 59.336C103.116 58.472 103.556 57.544 103.94 56.552C104.34 55.544 104.66 54.528 104.9 53.504ZM105.596 57.032H120.788V59.96H104.156L105.596 57.032ZM113.492 64.352C114.212 66.624 115.388 68.496 117.02 69.968C118.652 71.44 120.844 72.464 123.596 73.04C123.372 73.248 123.132 73.512 122.876 73.832C122.636 74.152 122.404 74.48 122.18 74.816C121.972 75.168 121.796 75.488 121.652 75.776C119.668 75.264 117.98 74.52 116.588 73.544C115.196 72.568 114.028 71.368 113.084 69.944C112.156 68.52 111.38 66.864 110.756 64.976L113.492 64.352ZM110.372 53.216H113.396V60.872C113.396 61.992 113.324 63.128 113.18 64.28C113.052 65.432 112.78 66.56 112.364 67.664C111.948 68.768 111.34 69.824 110.54 70.832C109.74 71.824 108.684 72.744 107.372 73.592C106.076 74.424 104.468 75.136 102.548 75.728C102.436 75.488 102.268 75.208 102.044 74.888C101.836 74.568 101.612 74.248 101.372 73.928C101.132 73.624 100.908 73.376 100.7 73.184C102.428 72.688 103.876 72.088 105.044 71.384C106.212 70.68 107.148 69.912 107.852 69.08C108.572 68.248 109.108 67.376 109.46 66.464C109.828 65.536 110.068 64.6 110.18 63.656C110.308 62.712 110.372 61.776 110.372 60.848V53.216Z" fill="#B65A0F"/>
<path d="M78.4759 57.128H85.8439V73.28H78.4759V70.76H83.2519V59.624H78.4759V57.128ZM76.7959 57.128H79.4119V75.056H76.7959V57.128ZM78.3799 63.536H84.4999V66.032H78.3799V63.536ZM80.2279 53.216L83.3479 53.672C83.0919 54.488 82.8119 55.296 82.5079 56.096C82.2199 56.896 81.9559 57.576 81.7159 58.136L79.4119 57.608C79.5239 57.192 79.6279 56.728 79.7239 56.216C79.8359 55.704 79.9399 55.184 80.0359 54.656C80.1319 54.128 80.1959 53.648 80.2279 53.216ZM89.0119 56.936H96.0439V59.576H89.0119V56.936ZM95.0359 56.936H97.6999C97.6999 56.936 97.6999 57.024 97.6999 57.2C97.6999 57.36 97.6999 57.544 97.6999 57.752C97.6999 57.96 97.6919 58.12 97.6759 58.232C97.6119 60.936 97.5319 63.232 97.4359 65.12C97.3559 66.992 97.2519 68.544 97.1239 69.776C97.0119 70.992 96.8759 71.944 96.7159 72.632C96.5559 73.32 96.3479 73.824 96.0919 74.144C95.7719 74.608 95.4279 74.928 95.0599 75.104C94.6919 75.28 94.2679 75.408 93.7879 75.488C93.3239 75.552 92.7479 75.576 92.0599 75.56C91.3879 75.56 90.6999 75.552 89.9959 75.536C89.9799 75.136 89.8839 74.664 89.7079 74.12C89.5319 73.592 89.3159 73.128 89.0599 72.728C89.8279 72.792 90.5399 72.832 91.1959 72.848C91.8679 72.864 92.3559 72.872 92.6599 72.872C92.8999 72.872 93.0919 72.848 93.2359 72.8C93.3959 72.736 93.5479 72.624 93.6919 72.464C93.8999 72.256 94.0679 71.832 94.1959 71.192C94.3399 70.536 94.4599 69.616 94.5559 68.432C94.6519 67.248 94.7399 65.752 94.8199 63.944C94.8999 62.136 94.9719 59.984 95.0359 57.488V56.936ZM89.0839 53.24L91.8679 53.888C91.5639 55.056 91.1879 56.224 90.7399 57.392C90.3079 58.56 89.8279 59.664 89.2999 60.704C88.7879 61.728 88.2599 62.624 87.7159 63.392C87.5559 63.232 87.3239 63.048 87.0199 62.84C86.7319 62.616 86.4359 62.4 86.1319 62.192C85.8439 61.984 85.5879 61.824 85.3639 61.712C85.8919 61.024 86.3879 60.232 86.8519 59.336C87.3319 58.424 87.7559 57.448 88.1239 56.408C88.5079 55.352 88.8279 54.296 89.0839 53.24ZM87.9079 63.872L90.1639 62.6C90.5639 63.144 90.9879 63.744 91.4359 64.4C91.8839 65.056 92.3079 65.696 92.7079 66.32C93.1079 66.944 93.4359 67.496 93.6919 67.976L91.2439 69.464C91.0199 68.968 90.7159 68.4 90.3319 67.76C89.9639 67.12 89.5639 66.464 89.1319 65.792C88.7159 65.104 88.3079 64.464 87.9079 63.872Z" fill="#B65A0F"/>
<path d="M67.0039 55.352L69.1639 53.888C69.5959 54.256 70.0359 54.672 70.4839 55.136C70.9479 55.584 71.3799 56.04 71.7799 56.504C72.1959 56.952 72.5159 57.368 72.7399 57.752L70.4119 59.36C70.2199 58.976 69.9319 58.552 69.5479 58.088C69.1799 57.608 68.7719 57.136 68.3239 56.672C67.8759 56.192 67.4359 55.752 67.0039 55.352ZM51.2839 60.056H72.9319V62.768H51.2839V60.056ZM50.8279 66.824C51.7879 66.68 52.9079 66.504 54.1879 66.296C55.4679 66.088 56.8199 65.856 58.2439 65.6C59.6839 65.344 61.0999 65.096 62.4919 64.856L62.6839 67.448C61.4039 67.72 60.0999 67.992 58.7719 68.264C57.4599 68.536 56.1799 68.8 54.9319 69.056C53.6999 69.296 52.5639 69.52 51.5239 69.728L50.8279 66.824ZM55.8199 56.168H58.7239V72.392C58.7239 73.176 58.6279 73.784 58.4359 74.216C58.2599 74.648 57.9319 74.976 57.4519 75.2C56.9719 75.424 56.3719 75.568 55.6519 75.632C54.9319 75.712 54.0759 75.752 53.0839 75.752C53.0519 75.48 52.9799 75.168 52.8679 74.816C52.7559 74.464 52.6279 74.112 52.4839 73.76C52.3559 73.408 52.2199 73.104 52.0759 72.848C52.7479 72.88 53.3959 72.896 54.0199 72.896C54.6439 72.896 55.0599 72.888 55.2679 72.872C55.4759 72.872 55.6199 72.84 55.6999 72.776C55.7799 72.696 55.8199 72.56 55.8199 72.368V56.168ZM60.7399 53.384L62.7079 55.832C61.6679 56.152 60.5399 56.44 59.3239 56.696C58.1079 56.936 56.8679 57.152 55.6039 57.344C54.3559 57.536 53.1479 57.696 51.9799 57.824C51.9319 57.488 51.8199 57.08 51.6439 56.6C51.4839 56.12 51.3239 55.72 51.1639 55.4C52.2839 55.256 53.4279 55.08 54.5959 54.872C55.7639 54.664 56.8759 54.432 57.9319 54.176C58.9879 53.92 59.9239 53.656 60.7399 53.384ZM63.1159 53.408H66.1159C66.0839 55.344 66.1319 57.256 66.2599 59.144C66.4039 61.032 66.6119 62.808 66.8839 64.472C67.1559 66.12 67.4759 67.584 67.8439 68.864C68.2119 70.128 68.6039 71.12 69.0199 71.84C69.4359 72.56 69.8679 72.92 70.3159 72.92C70.5719 72.92 70.7639 72.608 70.8919 71.984C71.0359 71.36 71.1399 70.336 71.2039 68.912C71.5079 69.232 71.8839 69.552 72.3319 69.872C72.7799 70.176 73.1959 70.408 73.5799 70.568C73.4199 71.976 73.2039 73.056 72.9319 73.808C72.6599 74.576 72.2839 75.104 71.8039 75.392C71.3399 75.696 70.7479 75.848 70.0279 75.848C69.1959 75.848 68.4439 75.544 67.7719 74.936C67.1159 74.344 66.5319 73.512 66.0199 72.44C65.5239 71.368 65.0919 70.12 64.7239 68.696C64.3719 67.256 64.0759 65.704 63.8359 64.04C63.5959 62.36 63.4199 60.616 63.3079 58.808C63.1959 57 63.1319 55.2 63.1159 53.408ZM69.6439 63.56L72.1639 64.664C71.3479 66.152 70.3799 67.536 69.2599 68.816C68.1399 70.096 66.9159 71.256 65.5879 72.296C64.2599 73.32 62.8679 74.216 61.4119 74.984C61.2039 74.632 60.9159 74.24 60.5479 73.808C60.1959 73.376 59.8359 73 59.4679 72.68C60.8439 72.04 62.1719 71.264 63.4519 70.352C64.7479 69.44 65.9239 68.408 66.9799 67.256C68.0359 66.104 68.9239 64.872 69.6439 63.56Z" fill="#B65A0F"/>
<path d="M29.8759 65.336L32.9719 66.152C32.6039 67.096 32.1639 68.04 31.6519 68.984C31.1399 69.912 30.5959 70.784 30.0199 71.6C29.4599 72.416 28.8919 73.128 28.3159 73.736C28.1079 73.56 27.8359 73.36 27.4999 73.136C27.1799 72.912 26.8439 72.696 26.4919 72.488C26.1559 72.28 25.8679 72.104 25.6279 71.96C26.5079 71.176 27.3239 70.192 28.0759 69.008C28.8439 67.808 29.4439 66.584 29.8759 65.336ZM41.5399 66.32L44.2999 65.12C44.8439 65.856 45.3799 66.656 45.9079 67.52C46.4519 68.368 46.9399 69.208 47.3719 70.04C47.8199 70.872 48.1479 71.632 48.3559 72.32L45.3319 73.664C45.1559 73.008 44.8679 72.256 44.4679 71.408C44.0679 70.544 43.6119 69.672 43.0999 68.792C42.5879 67.896 42.0679 67.072 41.5399 66.32ZM28.6759 54.752H45.6919V57.608H28.6759V54.752ZM26.4679 60.656H47.9239V63.536H26.4679V60.656ZM35.4919 61.472H38.5399V75.728H35.4919V61.472Z" fill="#B65A0F"/>
<path d="M13.532 54.2001H23.084V56.6001H13.532V54.2001ZM16.292 63.7761V65.2641H20.3V63.7761H16.292ZM16.292 67.2801V68.7681H20.3V67.2801H16.292ZM16.292 60.2961V61.7601H20.3V60.2961H16.292ZM14.06 58.1361H22.628V70.9281H14.06V58.1361ZM16.868 55.4241L19.748 55.7601C19.556 56.4961 19.364 57.2161 19.172 57.9201C18.98 58.6081 18.796 59.2081 18.62 59.7201L16.436 59.3121C16.548 58.7521 16.644 58.1121 16.724 57.3921C16.804 56.6721 16.852 56.0161 16.868 55.4241ZM15.956 71.1441L18.116 72.5121C17.604 73.1201 16.956 73.7281 16.172 74.3361C15.404 74.9601 14.668 75.4561 13.964 75.8241C13.756 75.5681 13.484 75.2721 13.148 74.9361C12.812 74.6161 12.508 74.3441 12.236 74.1201C12.684 73.8961 13.14 73.6161 13.604 73.2801C14.084 72.9441 14.532 72.5841 14.948 72.2001C15.364 71.8161 15.7 71.4641 15.956 71.1441ZM18.764 72.5121L20.708 71.2161C21.044 71.5201 21.396 71.8561 21.764 72.2241C22.148 72.5921 22.508 72.9601 22.844 73.3281C23.196 73.6961 23.476 74.0321 23.684 74.3361L21.596 75.8001C21.42 75.4961 21.164 75.1521 20.828 74.7681C20.508 74.3841 20.164 73.9921 19.796 73.5921C19.444 73.1921 19.1 72.8321 18.764 72.5121ZM4.38797 58.6161V59.7201H10.148V58.6161H4.38797ZM4.38797 55.8801V56.9841H10.148V55.8801H4.38797ZM1.98797 54.1281H12.668V61.4721H1.98797V54.1281ZM4.91597 66.9681L6.40397 66.5361C6.61197 67.0801 6.79597 67.6721 6.95597 68.3121C7.13197 68.9521 7.25197 69.5121 7.31597 69.9921L5.73197 70.4481C5.69997 69.9681 5.60397 69.4081 5.44397 68.7681C5.29997 68.1121 5.12397 67.5121 4.91597 66.9681ZM4.74797 71.2641L6.76397 70.9761C6.89197 71.6161 6.99597 72.3201 7.07597 73.0881C7.17197 73.8561 7.21997 74.5201 7.21997 75.0801L5.10797 75.4161C5.12397 74.8401 5.09197 74.1681 5.01197 73.4001C4.94797 72.6321 4.85997 71.9201 4.74797 71.2641ZM7.29197 71.1201L9.18797 70.6401C9.41197 71.2161 9.61197 71.8481 9.78797 72.5361C9.97997 73.2241 10.108 73.8241 10.172 74.3361L8.17997 74.8881C8.13197 74.3761 8.01997 73.7681 7.84397 73.0641C7.68397 72.3601 7.49997 71.7121 7.29197 71.1201ZM9.83597 70.6641L11.66 69.9681C11.948 70.4641 12.228 71.0081 12.5 71.6001C12.788 72.1761 13.004 72.6801 13.148 73.1121L11.228 73.9041C11.116 73.4721 10.924 72.9521 10.652 72.3441C10.396 71.7201 10.124 71.1601 9.83597 70.6641ZM2.27597 70.5921L4.38797 71.4081C4.22797 72.1281 4.01197 72.8801 3.73997 73.6641C3.48397 74.4641 3.18797 75.1441 2.85197 75.7041L0.667969 74.6961C0.907969 74.3281 1.13197 73.9121 1.33997 73.4481C1.54797 72.9841 1.73197 72.5041 1.89197 72.0081C2.05197 71.5121 2.17997 71.0401 2.27597 70.5921ZM11.204 66.9441L12.812 66.3201C13.068 66.8961 13.316 67.5201 13.556 68.1921C13.812 68.8481 13.996 69.4161 14.108 69.8961L12.404 70.6161C12.308 70.1201 12.14 69.5281 11.9 68.8401C11.676 68.1521 11.444 67.5201 11.204 66.9441ZM1.55597 70.3041C1.49197 70.0961 1.38797 69.7841 1.24397 69.3681C1.11597 68.9521 0.995969 68.6161 0.883969 68.3601C1.09197 68.3121 1.29197 68.2081 1.48397 68.0481C1.69197 67.8721 1.91597 67.6561 2.15597 67.4001C2.31597 67.2241 2.56397 66.9121 2.89997 66.4641C3.25197 66.0001 3.62797 65.4641 4.02797 64.8561C4.44397 64.2321 4.80397 63.6001 5.10797 62.9601L7.17197 63.6801C6.54797 64.7201 5.85197 65.7361 5.08397 66.7281C4.31597 67.7041 3.56397 68.5361 2.82797 69.2241V69.2481C2.82797 69.2481 2.71597 69.3121 2.49197 69.4401C2.28397 69.5521 2.07597 69.6881 1.86797 69.8481C1.65997 70.0081 1.55597 70.1601 1.55597 70.3041ZM1.55597 70.3041L1.50797 68.7921L2.44397 68.1921L6.33197 67.9281C6.36397 68.1841 6.41997 68.4801 6.49997 68.8161C6.57997 69.1361 6.64397 69.4081 6.69197 69.6321C5.36397 69.7441 4.35597 69.8401 3.66797 69.9201C2.97997 70.0001 2.49197 70.0641 2.20397 70.1121C1.91597 70.1601 1.69997 70.2241 1.55597 70.3041ZM1.62797 66.5361C1.56397 66.3121 1.45997 66.0081 1.31597 65.6241C1.17197 65.2401 1.04397 64.9201 0.931969 64.6641C1.05997 64.6161 1.17997 64.5441 1.29197 64.4481C1.41997 64.3361 1.53197 64.2001 1.62797 64.0401C1.69197 63.9281 1.78797 63.7441 1.91597 63.4881C2.05997 63.2161 2.20397 62.8961 2.34797 62.5281C2.49197 62.1441 2.60397 61.7601 2.68397 61.3761L4.77197 61.8561C4.54797 62.5281 4.23597 63.1921 3.83597 63.8481C3.45197 64.5041 3.09197 65.0401 2.75597 65.4561V65.5041C2.75597 65.5041 2.65997 65.5601 2.46797 65.6721C2.29197 65.7841 2.10797 65.9201 1.91597 66.0801C1.72397 66.2401 1.62797 66.3921 1.62797 66.5361ZM1.62797 66.5361L1.57997 65.0481L2.49197 64.4721L5.63597 64.2801C5.53997 64.5521 5.44397 64.8561 5.34797 65.1921C5.25197 65.5281 5.18797 65.8081 5.15597 66.0321C4.29197 66.0961 3.62797 66.1601 3.16397 66.2241C2.69997 66.2721 2.35597 66.3201 2.13197 66.3681C1.90797 66.4161 1.73997 66.4721 1.62797 66.5361ZM7.65197 70.2321C7.60397 70.0081 7.50797 69.6881 7.36397 69.2721C7.21997 68.8561 7.09197 68.5121 6.97997 68.2401C7.20397 68.1921 7.41197 68.0881 7.60397 67.9281C7.81197 67.7681 8.03597 67.5601 8.27597 67.3041C8.45197 67.1281 8.71597 66.8241 9.06797 66.3921C9.43597 65.9601 9.81997 65.4401 10.22 64.8321C10.636 64.2241 11.004 63.6001 11.324 62.9601L13.484 63.7041C12.812 64.7281 12.076 65.7281 11.276 66.7041C10.492 67.6641 9.71597 68.4801 8.94797 69.1521V69.1761C8.94797 69.1761 8.88397 69.2161 8.75597 69.2961C8.62797 69.3601 8.47597 69.4481 8.29997 69.5601C8.12397 69.6721 7.97197 69.7841 7.84397 69.8961C7.71597 70.0081 7.65197 70.1201 7.65197 70.2321ZM7.65197 70.2561L7.62797 68.6961L8.58797 68.0721L12.74 67.7841C12.772 68.0561 12.828 68.3601 12.908 68.6961C12.988 69.0161 13.06 69.2961 13.124 69.5361C12.052 69.6321 11.18 69.7121 10.508 69.7761C9.85197 69.8401 9.33197 69.9041 8.94797 69.9681C8.56397 70.0161 8.28397 70.0641 8.10797 70.1121C7.93197 70.1601 7.77997 70.2081 7.65197 70.2561ZM7.62797 66.4881C7.57997 66.2641 7.47597 65.9521 7.31597 65.5521C7.17197 65.1361 7.04397 64.8001 6.93197 64.5441C7.07597 64.5121 7.20397 64.4481 7.31597 64.3521C7.44397 64.2561 7.56397 64.1281 7.67597 63.9681C7.75597 63.8561 7.87597 63.6721 8.03597 63.4161C8.19597 63.1601 8.35597 62.8481 8.51597 62.4801C8.69197 62.1121 8.83597 61.7281 8.94797 61.3281L11.108 61.9041C10.804 62.5601 10.436 63.2081 10.004 63.8481C9.57197 64.4721 9.16397 64.9841 8.77997 65.3841V65.4081C8.77997 65.4081 8.68397 65.4721 8.49197 65.6001C8.29997 65.7121 8.10797 65.8561 7.91597 66.0321C7.72397 66.1921 7.62797 66.3441 7.62797 66.4881ZM7.62797 66.4881L7.60397 64.9521L8.53997 64.3761L11.684 64.1841C11.604 64.4561 11.524 64.7601 11.444 65.0961C11.364 65.4321 11.308 65.7201 11.276 65.9601C10.396 66.0241 9.70797 66.0881 9.21197 66.1521C8.73197 66.2161 8.37997 66.2721 8.15597 66.3201C7.93197 66.3681 7.75597 66.4241 7.62797 66.4881Z" fill="#B65A0F"/>
<defs>
<filter id="filter0_d_21_36" x="95.0647" y="6.83575" width="34.2666" height="38.0117" filterUnits="userSpaceOnUse" color-interpolation-filters="sRGB">
<feFlood flood-opacity="0" result="BackgroundImageFix"/>
<feColorMatrix in="SourceAlpha" type="matrix" values="0 0 0 0 0 0 0 0 0 0 0 0 0 0 0 0 0 0 127 0" result="hardAlpha"/>
<feOffset/>
<feGaussianBlur stdDeviation="2.33216"/>
<feComposite in2="hardAlpha" operator="out"/>
<feColorMatrix type="matrix" values="0 0 0 0 1 0 0 0 0 1 0 0 0 0 1 0 0 0 0.1 0"/>
<feBlend mode="normal" in2="BackgroundImageFix" result="effect1_dropShadow_21_36"/>
<feBlend mode="normal" in="SourceGraphic" in2="effect1_dropShadow_21_36" result="shape"/>
</filter>
<filter id="filter1_d_21_36" x="69.5351" y="6.83575" width="34.2666" height="38.0117" filterUnits="userSpaceOnUse" color-interpolation-filters="sRGB">
<feFlood flood-opacity="0" result="BackgroundImageFix"/>
<feColorMatrix in="SourceAlpha" type="matrix" values="0 0 0 0 0 0 0 0 0 0 0 0 0 0 0 0 0 0 127 0" result="hardAlpha"/>
<feOffset/>
<feGaussianBlur stdDeviation="2.33216"/>
<feComposite in2="hardAlpha" operator="out"/>
<feColorMatrix type="matrix" values="0 0 0 0 1 0 0 0 0 1 0 0 0 0 1 0 0 0 0.1 0"/>
<feBlend mode="normal" in2="BackgroundImageFix" result="effect1_dropShadow_21_36"/>
<feBlend mode="normal" in="SourceGraphic" in2="effect1_dropShadow_21_36" result="shape"/>
</filter>
<filter id="filter2_d_21_36" x="83.3711" y="0.335684" width="32.1553" height="45.2439" filterUnits="userSpaceOnUse" color-interpolation-filters="sRGB">
<feFlood flood-opacity="0" result="BackgroundImageFix"/>
<feColorMatrix in="SourceAlpha" type="matrix" values="0 0 0 0 0 0 0 0 0 0 0 0 0 0 0 0 0 0 127 0" result="hardAlpha"/>
<feOffset/>
<feGaussianBlur stdDeviation="2.33216"/>
<feComposite in2="hardAlpha" operator="out"/>
<feColorMatrix type="matrix" values="0 0 0 0 1 0 0 0 0 1 0 0 0 0 1 0 0 0 0.1 0"/>
<feBlend mode="normal" in2="BackgroundImageFix" result="effect1_dropShadow_21_36"/>
<feBlend mode="normal" in="SourceGraphic" in2="effect1_dropShadow_21_36" result="shape"/>
</filter>
</defs>
</svg>
